<?xml version="1.0" encoding="UTF-8" standalone="no"?>
<!-- Created with Inkscape (http://www.inkscape.org/) -->

<svg
   width="85.411964mm"
   height="77.263649mm"
   viewBox="0 0 85.411964 77.263649"
   version="1.1"
   id="svg5"
   xmlns="http://www.w3.org/2000/svg"
   xmlns:svg="http://www.w3.org/2000/svg">
  <defs
     id="defs2" />
  <g
     id="layer1"
     transform="translate(-65.986885,-136.93985)">
    <rect
       style="fill:#1a1a1a;stroke-width:0.264583"
       id="rect500"
       width="85.411964"
       height="77.263649"
       x="65.986885"
       y="136.93985" />
    <g
       aria-label="AC"
       id="text236"
       style="fill:#999999;stroke-width:0.500129">
      <path
         d="m 99.980609,189.96826 h -10.55874 l -1.508392,7.43793 q -3.380877,-0.10402 -6.033566,-0.15604 -1.144297,0 -2.23658,0 -1.04027,0 -1.872486,0 -0.832216,0 -1.352351,0.052 -0.520135,0.052 -0.520135,0.10402 L 83.64837,154.6511 h 18.04868 l 11.44297,41.09066 -11.70303,0.93624 z m -1.612418,-7.12585 -3.796986,-17.32049 -3.640945,17.32049 z"
         id="path644" />
      <path
         d="m 140.96724,197.56223 -17.73661,0.52014 q -2.28859,0.15604 -4.05705,-0.7802 -0.7802,-0.3641 -1.50839,-0.98826 -0.72819,-0.67618 -1.35235,-1.66443 -0.57215,-1.04027 -0.93625,-2.44464 -0.36409,-1.40436 -0.36409,-3.27685 -0.052,-1.87248 -0.052,-4.10906 0,-2.23658 0,-4.57719 0.052,-2.39262 0.10402,-4.78524 0.052,-2.44464 0.15604,-4.68122 0.15604,-5.20135 0.41611,-10.61075 0.15604,-1.76846 1.04027,-3.17283 0.72819,-1.19631 2.23658,-2.28859 1.50839,-1.09228 4.31712,-1.35235 2.75672,-0.20806 5.92954,-0.26007 3.17283,-0.052 5.92954,-0.052 3.22484,0 6.39766,0.10402 l -0.7802,11.59902 q -3.17282,0.052 -4.9933,0.10402 -1.76846,0.052 -2.75671,0.10403 -0.93625,0 -1.30034,0.052 -0.31208,0 -0.52014,0 -0.72818,0.10403 -1.45637,0.26007 -0.67618,0.15604 -1.24833,0.57215 -0.52013,0.36409 -0.88423,1.04027 -0.31208,0.62416 -0.36409,1.71644 -0.052,1.09229 -0.15604,2.70471 -0.052,1.5604 -0.15604,3.38087 -0.052,1.76846 -0.10403,3.58894 -0.052,1.76845 -0.052,3.22483 -0.10403,2.18457 0.20805,3.32887 0.31208,1.14429 1.04027,1.61241 0.7802,0.46813 1.9245,0.46813 1.19631,0 2.86074,-0.10403 1.97652,-0.10403 4.05706,-0.31208 2.08054,-0.20806 3.849,-0.20806 z"
         id="path646" />
    </g>
  </g>
</svg>
